<svg width="240" height="240" viewBox="0 0 240 240" fill="none" xmlns="http://www.w3.org/2000/svg">
<rect width="240" height="240" rx="120" fill="#CE0033"/>
<path fill-rule="evenodd" clip-rule="evenodd" d="M149.064 147.913C180.805 125.014 163.202 43.882 142.5 42H98.4999C69.1754 51.1639 64.2043 130.869 90.5129 148.365L69.7326 170.579C68.2234 172.192 68.3078 174.723 69.9211 176.233C71.5344 177.742 74.0656 177.657 75.5748 176.044L81.6968 169.5H158.303L164.425 176.044C165.934 177.657 168.466 177.742 170.079 176.233C171.692 174.723 171.777 172.192 170.267 170.579L149.064 147.913ZM149.884 160.5L141.465 151.5H98.5355L90.1161 160.5H149.884ZM151.5 61H87.5C80.3 85 81.1667 96.3333 82.5 99H158.5C158.5 79.4 153.833 65.5 151.5 61ZM136.5 134C136.5 130.134 139.634 127 143.5 127C147.366 127 150.5 130.134 150.5 134C150.5 137.866 147.366 141 143.5 141C139.634 141 136.5 137.866 136.5 134ZM89 133.5C89 129.634 92.134 126.5 96 126.5C99.866 126.5 103 129.634 103 133.5C103 137.366 99.866 140.5 96 140.5C92.134 140.5 89 137.366 89 133.5Z" fill="white"/>
<path d="M44 194C44 192.067 45.567 190.5 47.5 190.5H192.5C194.433 190.5 196 192.067 196 194C196 195.933 194.433 197.5 192.5 197.5H47.5C45.567 197.5 44 195.933 44 194Z" fill="white"/>
</svg>
